<svg width="107" height="127" viewBox="0 0 107 127" fill="none" xmlns="http://www.w3.org/2000/svg">
<path fill-rule="evenodd" clip-rule="evenodd" d="M87.5757 38.2656L53.2799 21.9375L18.9841 38.2656C18.7857 49.8061 19.7798 58.7123 21.9663 64.9844C30.3357 88.9918 48.8065 108.031 53.2799 108.031C57.7533 108.031 75.4487 93.3439 84.5935 64.9844C86.3044 59.6786 87.2985 50.7723 87.5757 38.2656Z" fill="#92BAF6"/>
<path d="M89.6864 34.1984C68.259 34.1984 53.1092 16 53.1092 16C53.1092 16 37.9594 34.1984 16.532 34.1984C16.532 34.1984 8.70356 86.0328 53.1092 111C97.5148 86.0328 89.6864 34.1984 89.6864 34.1984ZM82.1413 62.4016C77.9662 80.6891 68.1993 94.6422 53.1092 104.083C38.019 94.6422 28.2522 80.6891 24.077 62.3422C22.4161 54.9465 21.7343 47.3663 22.0491 39.7945C36.2297 38.0281 47.264 29.8195 53.1092 24.4758C58.9544 29.8195 69.9887 38.0281 84.1693 39.7945C84.484 47.3663 83.8023 54.9465 82.1413 62.3422V62.4016Z" fill="#0042A5"/>
</svg>
